<svg viewBox="0 0 1440 347" xmlns="http://www.w3.org/2000/svg"><g fill="none" fill-rule="evenodd"><path d="M724.56 347V148.95c-185.39-21.716-310.65-48.954-501.03-48.954-83.03 0-155.59 9.923-223.52 25.375v221.62h724.56" fill="#d9ddef"/><path d="M1440 347V0c-370.46-.908-365.21 193.05-720 193.05-98.58 0-209.99-115.72-358.41-115.72-148.42 0-293.37 99.99-361.59 91.32v178.34h1440" fill="#e3e8f2"/><path d="M0 221.58s140.4-54.15 312.37-54.15c254.45 0 256.23 65.14 470.24 64.738 214.01-.401 394.32-137.95 618.15-138.3 16.356-.025 25.896.595 39.24 1.018.121-.423 0 252.11 0 252.11H0v-125.42" fill="#d9ddef"/><path d="M724.56 347H1440V171.29c-10.428.21-19.27.455-28.327.735-325.54 10.07-528.37-4.478-687.12-23.07v198.05" fill="#d0d4eb"/><path d="M-.449 254.03s60.63 8.847 100.74 8.768c234.53-.462 293.39-116.21 538.69-116.61 245.31-.399 259.01 112.14 509.09 115.04 161.13 1.868 292.2-57.16 291.92-57.16v142.93h-1440l-.449-92.97" fill="#c7cae7"/><path d="M0 347s-.76-52.46 0-52.774c8.631.21 92.57 32.686 311.12 32.686s592-58.976 821.46-58.976c229.46 0 253.07 58.976 307.42 58.976v20.09H0" fill="#bfc2e3"/></g></svg>