<svg width="1418" height="733" viewBox="0 0 1418 733" xmlns="http://www.w3.org/2000/svg"><title>waves-1</title><defs><linearGradient x1="20.789%" y1="40.074%" x2="77.153%" y2="79.469%" id="a"><stop stop-color="#6948F8" offset="0%"/><stop stop-color="#3D5BFF" offset="100%"/></linearGradient><linearGradient x1="52.341%" y1="36.729%" x2="48.823%" y2="58.659%" id="b"><stop stop-color="#1D46EF" offset="0%"/><stop stop-color="#6040FF" offset="100%"/></linearGradient></defs><g fill-rule="nonzero" fill="none"><path d="M35.69 708.869c31.04-2.89 63.66-4.616 97.28-4.616 305.32 0 307.46 78.23 564.26 77.75 252.619-.474 495.199-139.58 758.729-144.5l-8.986 253.43-1415.91-49.44 4.632-132.61" fill="url(#a)" opacity=".25" transform="rotate(-2 -3140.503 1670.632)"/><path d="M337.675 731.52c122.42-45.638 217.1-109.34 410.88-116.42 294.25-10.755 315.4 123.65 615.52 116.66l-1026.4-.235" fill="#7E64FF" opacity=".5"/><path d="M46.42 312.293l-34.14-242.9c138.061 49.2 198.581 137.65 423.452 137.65 86.75 0 184.8-101.74 315.41-101.74 98.2 0 194.67 49.69 262.02 71.12L46.421 312.293" fill="url(#b)" opacity=".3" transform="scale(1 -1) rotate(8 2259.65 -175.617)"/></g></svg>