<svg height="511pt" viewBox="-48 0 511 511.99988" width="511pt" xmlns="http://www.w3.org/2000/svg"><path d="m199.777344 99.636719h16.605468v207.582031h-16.605468zm0 0" fill="#5d5360"/><path d="m199.777344 99.636719h16.605468v33.214843h-16.605468zm0 0" fill="#4b3f4e"/><path d="m390.746094 415.15625h-365.335938c-13.757812 0-24.910156-11.148438-24.910156-24.90625v-66.425781c0-13.757813 11.152344-24.910157 24.910156-24.910157h365.339844c13.757812 0 24.90625 11.152344 24.90625 24.910157v66.425781c0 13.753906-11.152344 24.90625-24.910156 24.90625zm0 0" fill="#857e87"/><path d="m357.535156 348.730469h-49.816406c-4.589844 0-8.304688-3.714844-8.304688-8.300781 0-4.585938 3.714844-8.304688 8.304688-8.304688h49.816406c4.589844 0 8.304688 3.71875 8.304688 8.304688 0 4.585937-3.714844 8.300781-8.304688 8.300781zm0 0" fill="#5d5360"/><path d="m357.535156 381.945312h-49.816406c-4.589844 0-8.304688-3.71875-8.304688-8.304687 0-4.582031 3.714844-8.300781 8.304688-8.300781h49.816406c4.589844 0 8.304688 3.71875 8.304688 8.300781 0 4.585937-3.714844 8.304687-8.304688 8.304687zm0 0" fill="#5d5360"/><path d="m58.621094 398.550781c-22.929688 0-41.515625-18.585937-41.515625-41.515625v-56.707031c-9.652344 3.429687-16.605469 12.664063-16.605469 23.492187v66.425782c0 13.757812 11.152344 24.910156 24.910156 24.910156h365.335938c10.832031 0 20.066406-6.953125 23.496094-16.605469zm0 0" fill="#6f6571"/><path d="m66.925781 357.035156c0 4.585938-3.71875 8.304688-8.304687 8.304688-4.585938 0-8.300782-3.71875-8.300782-8.304688 0-4.585937 3.714844-8.300781 8.300782-8.300781 4.585937 0 8.304687 3.714844 8.304687 8.300781zm0 0" fill="#b6b1b7"/><path d="m390.746094 265.699219h-365.335938c-13.757812 0-24.910156-11.148438-24.910156-24.90625v-66.425781c0-13.757813 11.152344-24.910157 24.910156-24.910157h365.339844c13.757812 0 24.90625 11.152344 24.90625 24.910157v66.425781c0 13.757812-11.152344 24.90625-24.910156 24.90625zm0 0" fill="#857e87"/><path d="m274.503906 199.277344h-116.242187c-4.589844 0-8.304688-3.71875-8.304688-8.304688 0-4.585937 3.714844-8.300781 8.304688-8.300781h116.242187c4.589844 0 8.304688 3.714844 8.304688 8.300781 0 4.585938-3.714844 8.304688-8.304688 8.304688zm0 0" fill="#4b3f4e"/><path d="m274.503906 232.488281h-116.242187c-4.589844 0-8.304688-3.71875-8.304688-8.304687 0-4.582032 3.714844-8.300782 8.304688-8.300782h116.242187c4.589844 0 8.304688 3.71875 8.304688 8.300782 0 4.585937-3.714844 8.304687-8.304688 8.304687zm0 0" fill="#4b3f4e"/><path d="m357.535156 199.277344h-49.816406c-4.589844 0-8.304688-3.71875-8.304688-8.304688 0-4.585937 3.714844-8.300781 8.304688-8.300781h49.816406c4.589844 0 8.304688 3.714844 8.304688 8.300781 0 4.585938-3.714844 8.304688-8.304688 8.304688zm0 0" fill="#5d5360"/><path d="m357.535156 232.488281h-49.816406c-4.589844 0-8.304688-3.71875-8.304688-8.304687 0-4.582032 3.714844-8.300782 8.304688-8.300782h49.816406c4.589844 0 8.304688 3.71875 8.304688 8.300782 0 4.585937-3.714844 8.304687-8.304688 8.304687zm0 0" fill="#5d5360"/><path d="m125.046875 207.578125c0 9.171875-7.433594 16.605469-16.605469 16.605469s-16.605468-7.433594-16.605468-16.605469 7.433593-16.605469 16.605468-16.605469 16.605469 7.433594 16.605469 16.605469zm0 0" fill="#b3e59f"/><path d="m58.621094 249.09375c-22.929688 0-41.515625-18.585938-41.515625-41.515625v-56.707031c-9.652344 3.429687-16.605469 12.664062-16.605469 23.496094v66.421874c0 13.757813 11.152344 24.910157 24.910156 24.910157h365.335938c10.832031 0 20.066406-6.953125 23.496094-16.605469zm0 0" fill="#6f6571"/><path d="m66.925781 207.578125c0 4.585937-3.71875 8.304687-8.304687 8.304687-4.585938 0-8.300782-3.71875-8.300782-8.304687s3.714844-8.300781 8.300782-8.300781c4.585937 0 8.304687 3.714844 8.304687 8.300781zm0 0" fill="#b6b1b7"/><path d="m213.675781 509.898438c86.078125-76.6875 117.632813-168.878907 125.273438-195.289063 1.207031-4.167969-1.011719-8.511719-5.078125-10.039063l-119.960938-44.984374c-3.757812-1.410157-7.902344-1.410157-11.664062 0l-119.960938 44.984374c-4.066406 1.523438-6.285156 5.867188-5.078125 10.039063 7.640625 26.40625 39.199219 118.597656 125.273438 195.285156 3.148437 2.804688 8.050781 2.804688 11.195312.003907zm0 0" fill="#eceaec"/><path d="m139.59375 283.078125-57.308594 21.492187c-4.066406 1.523438-6.285156 5.867188-5.078125 10.039063 7.640625 26.40625 39.199219 118.597656 125.273438 195.285156 3.148437 2.804688 8.046875 2.804688 11.195312 0 5.871094-5.230469 11.464844-10.507812 16.839844-15.855469-55.972656-83.855468-81.515625-171.472656-90.921875-210.960937zm0 0" fill="#dad8db"/><path d="m291.871094 324.289062c-18.035156-6.761718-62.105469-23.289062-77.976563-29.238281-3.757812-1.410156-7.886719-1.40625-11.644531.003907l-77.933594 29.222656c-4.375 1.640625-6.554687 6.515625-4.8125 10.847656 13.019532 32.378906 38.054688 81.601562 82.5 128.160156 3.265625 3.421875 8.886719 3.421875 12.148438 0 44.445312-46.558594 69.484375-95.78125 82.5-128.160156 1.746094-4.332031-.40625-9.195312-4.78125-10.835938zm0 0" fill="#b3e59f"/><path d="m390.746094 116.242188h-365.335938c-13.757812 0-24.910156-11.148438-24.910156-24.90625v-66.425782c0-13.757812 11.152344-24.910156 24.910156-24.910156h365.339844c13.757812 0 24.90625 11.152344 24.90625 24.910156v66.425782c0 13.757812-11.152344 24.90625-24.910156 24.90625zm0 0" fill="#857e87"/><path d="m274.503906 49.820312h-116.242187c-4.589844 0-8.304688-3.71875-8.304688-8.304687s3.714844-8.300781 8.304688-8.300781h116.242187c4.589844 0 8.304688 3.714844 8.304688 8.300781s-3.714844 8.304687-8.304688 8.304687zm0 0" fill="#4b3f4e"/><path d="m274.503906 83.03125h-116.242187c-4.589844 0-8.304688-3.71875-8.304688-8.300781 0-4.585938 3.714844-8.304688 8.304688-8.304688h116.242187c4.589844 0 8.304688 3.71875 8.304688 8.304688 0 4.582031-3.714844 8.300781-8.304688 8.300781zm0 0" fill="#4b3f4e"/><path d="m357.535156 49.820312h-49.816406c-4.589844 0-8.304688-3.71875-8.304688-8.304687s3.714844-8.300781 8.304688-8.300781h49.816406c4.589844 0 8.304688 3.714844 8.304688 8.300781s-3.714844 8.304687-8.304688 8.304687zm0 0" fill="#5d5360"/><path d="m357.535156 83.03125h-49.816406c-4.589844 0-8.304688-3.71875-8.304688-8.300781 0-4.585938 3.714844-8.304688 8.304688-8.304688h49.816406c4.589844 0 8.304688 3.71875 8.304688 8.304688 0 4.582031-3.714844 8.300781-8.304688 8.300781zm0 0" fill="#5d5360"/><path d="m125.046875 58.121094c0 9.171875-7.433594 16.605468-16.605469 16.605468s-16.605468-7.433593-16.605468-16.605468 7.433593-16.605469 16.605468-16.605469 16.605469 7.433594 16.605469 16.605469zm0 0" fill="#b3e59f"/><path d="m58.621094 99.636719c-22.929688 0-41.515625-18.585938-41.515625-41.515625v-56.707032c-9.652344 3.429688-16.605469 12.664063-16.605469 23.496094v66.425782c0 13.753906 11.152344 24.90625 24.910156 24.90625h365.335938c10.832031 0 20.0625-6.953126 23.492187-16.605469zm0 0" fill="#6f6571"/><path d="m66.925781 58.121094c0 4.585937-3.71875 8.304687-8.304687 8.304687-4.585938 0-8.300782-3.71875-8.300782-8.304687 0-4.585938 3.714844-8.300782 8.300782-8.300782 4.585937 0 8.304687 3.714844 8.304687 8.300782zm0 0" fill="#b6b1b7"/><path d="m291.871094 324.289062c-18.035156-6.761718-62.105469-23.289062-77.976563-29.238281-1.875-.703125-3.84375-1.054687-5.816406-1.054687v171.855468c2.222656 0 4.445313-.855468 6.074219-2.5625 44.449218-46.5625 69.484375-95.785156 82.503906-128.160156 1.742188-4.335937-.410156-9.199218-4.785156-10.839844zm0 0" fill="#ccf49f"/><path d="m212.238281 464.78125c-32.664062-55.929688-52.632812-110.871094-64.019531-149.464844l-23.902344 8.960938c-4.375 1.640625-6.554687 6.515625-4.8125 10.847656 13.019532 32.378906 38.054688 81.601562 82.5 128.160156 2.695313 2.824219 6.980469 3.332032 10.234375 1.496094zm0 0" fill="#95d6a4"/></svg>