<svg data-v-2a183b29="" id="53917d2c-59b7-443c-9dc6-ca37ebed1a74" data-name="Layer 1" xmlns="http://www.w3.org/2000/svg" xmlns:xlink="http://www.w3.org/1999/xlink" width="965.64" height="800.81" viewBox="0 0 965.64 800.81" style="
    width: 40vw;
"><defs data-v-2a183b29=""><linearGradient data-v-2a183b29="" id="5075b4d4-ce6f-410a-b63e-15cf2dd063e7" x1="478.38" y1="695.72" x2="478.38" y2="33.2" gradientUnits="userSpaceOnUse"><stop data-v-2a183b29="" offset="0" stop-color="gray" stop-opacity="0.25"></stop><stop data-v-2a183b29="" offset="0.54" stop-color="gray" stop-opacity="0.12"></stop><stop data-v-2a183b29="" offset="1" stop-color="gray" stop-opacity="0.1"></stop></linearGradient><linearGradient data-v-2a183b29="" id="dee71953-6e04-4c93-a054-139b0acb5af5" x1="1834.21" y1="806.87" x2="1834.21" y2="194.98" gradientTransform="matrix(-1, 0, 0, 1, 2766, 0)" xlink:href="#5075b4d4-ce6f-410a-b63e-15cf2dd063e7"></linearGradient></defs><title data-v-2a183b29="">events</title><path data-v-2a183b29="" d="M1019.06,492.09c-37.09,60-30.14,141.74-13.85,206.19,5.45,21.58,11.73,44.36,7.07,68.51-5.7,29.53-26.48,52.72-47.51,66-38.34,24.15-82.12,23.48-114-1.77-27.53-21.81-45.66-59.85-73.77-80.49-47-34.55-111.54-13.61-167.58,18.68C569.79,792,526.17,821,489.54,804.58c-25.77-11.53-41.84-44.06-49.34-79.46-3.62-17.09-5.81-35.76-14.11-48.78-4.94-7.74-11.73-12.92-18.77-17.17-64.25-38.74-151.18-6.35-213.14-50.22-41.85-29.62-65.64-90.8-73.46-156.22s-1.39-135.42,6.66-204.34c5.73-49,13.48-101.42,39.2-141.27,27.21-42.15,70.1-61,107.38-57s69.65,27.62,97.55,56.49c34.87,36.08,66.32,82.16,111.45,93.8,30.74,7.93,64.31-1.25,97-6.44,54.58-8.68,108.4-6.19,161.84-2.93,51.16,3.12,102.63,7,150.3,25,33.73,12.75,59.62,39.29,91.1,56.55,20.52,11.25,43.67,12.68,62.79,27.68,23.55,18.48,43.93,52.59,34.5,95.71C1071.5,437,1038.74,460.25,1019.06,492.09Z" transform="translate(-117.18 -49.59)" fill="#6c63ff" opacity="0.1"></path><path data-v-2a183b29="" d="M781.67,356.47s101-84.63,123.46-127.3,51.05-79.44,51.05-79.44" transform="translate(-117.18 -49.59)" fill="none" stroke="#535461" stroke-miterlimit="10" stroke-width="2"></path><path data-v-2a183b29="" d="M942.9,245.12l-43.69-9.85S909.52,281.35,942.9,245.12Z" transform="translate(-117.18 -49.59)" fill="#6c63ff"></path><path data-v-2a183b29="" d="M876.14,198.08l25.14,37.65S852.13,239.28,876.14,198.08Z" transform="translate(-117.18 -49.59)" fill="#6c63ff"></path><path data-v-2a183b29="" d="M960.09,209.73l-39.93-7S945.24,240.88,960.09,209.73Z" transform="translate(-117.18 -49.59)" fill="#6c63ff"></path><path data-v-2a183b29="" d="M901,176.08l19.67,25.76S885.85,205.14,901,176.08Z" transform="translate(-117.18 -49.59)" fill="#6c63ff"></path><path data-v-2a183b29="" d="M940.81,170.95s34,1.62,38,4.87-5.07,22.3-18,19.19S940.81,170.95,940.81,170.95Z" transform="translate(-117.18 -49.59)" fill="#6c63ff"></path><path data-v-2a183b29="" d="M927.22,140.56s13.89,25.31,13.37,30.13-21.17,10.23-25.34-8S927.22,140.56,927.22,140.56Z" transform="translate(-117.18 -49.59)" fill="#6c63ff"></path><circle data-v-2a183b29="" cx="963.75" cy="154.12" r="9.49" transform="matrix(0.3, -0.95, 0.95, 0.3, 408.68, 976.78)" fill="#ffd037"></circle><circle data-v-2a183b29="" cx="948.9" cy="144.43" r="9.49" transform="matrix(0.3, -0.95, 0.95, 0.3, 407.54, 955.85)" fill="#ffd037"></circle><path data-v-2a183b29="" d="M466.64,688.22S482.85,640,380.09,581.87c0,0-104.34-30.43-93.67-134.93,0,0-120.28,88.12-38.89,200.37s151.64,87.75,151.64,87.75Z" transform="translate(-117.18 -49.59)" fill="#6c63ff"></path><path data-v-2a183b29="" d="M435.31,710s-50.14-54.19-98.2-75.14A95.71,95.71,0,0,1,311,617.47c-30.64-28-44-70.25-36.1-111l11.55-59.53" transform="translate(-117.18 -49.59)" fill="none" stroke="#535461" stroke-miterlimit="10" stroke-width="2"></path><rect data-v-2a183b29="" x="193.07" y="33.2" width="570.61" height="662.53" fill="url(#5075b4d4-ce6f-410a-b63e-15cf2dd063e7)"></rect><rect data-v-2a183b29="" x="199.72" y="40.91" width="557.32" height="647.09" fill="#f7f7fd"></rect><rect data-v-2a183b29="" x="233.38" y="113.85" width="140.89" height="11.22" fill="#e2e2ec"></rect><rect data-v-2a183b29="" x="233.38" y="141.28" width="240.63" height="11.22" fill="#e2e2ec"></rect><rect data-v-2a183b29="" x="630.36" y="103.13" width="99.99" height="86.28" fill="#fff"></rect><path data-v-2a183b29="" d="M847,153.22V238.5H748V153.22h99m1-1H747V239.5H848V152.22Z" transform="translate(-117.18 -49.59)" fill="#e2e2ec"></path><rect data-v-2a183b29="" x="529.37" y="103.13" width="99.99" height="86.28" fill="#fff"></rect><path data-v-2a183b29="" d="M746,153.22V238.5h-99V153.22h99m1-1h-101V239.5H747V152.22Z" transform="translate(-117.18 -49.59)" fill="#e2e2ec"></path><rect data-v-2a183b29="" x="630.36" y="190.41" width="99.99" height="86.28" fill="#fff"></rect><path data-v-2a183b29="" d="M847,240.5v85.28H748V240.5h99m1-1H747v87.28H848V239.5Z" transform="translate(-117.18 -49.59)" fill="#e2e2ec"></path><rect data-v-2a183b29="" x="529.37" y="190.41" width="99.99" height="86.28" fill="#fff"></rect><path data-v-2a183b29="" d="M746,240.5v85.28h-99V240.5h99m1-1h-101v87.28H747V239.5Z" transform="translate(-117.18 -49.59)" fill="#e2e2ec"></path><rect data-v-2a183b29="" x="428.38" y="190.41" width="99.99" height="86.28" fill="#fff"></rect><path data-v-2a183b29="" d="M645.05,240.5v85.28h-99V240.5h99m1-1h-101v87.28h101V239.5Z" transform="translate(-117.18 -49.59)" fill="#e2e2ec"></path><rect data-v-2a183b29="" x="327.39" y="190.41" width="99.99" height="86.28" fill="#fff"></rect><path data-v-2a183b29="" d="M544.06,240.5v85.28h-99V240.5h99m1-1h-101v87.28h101V239.5Z" transform="translate(-117.18 -49.59)" fill="#e2e2ec"></path><rect data-v-2a183b29="" x="226.4" y="190.41" width="99.99" height="86.28" fill="#fff"></rect><path data-v-2a183b29="" d="M443.07,240.5v85.28h-99V240.5h99m1-1h-101v87.28h101V239.5Z" transform="translate(-117.18 -49.59)" fill="#e2e2ec"></path><rect data-v-2a183b29="" x="630.36" y="277.68" width="99.99" height="86.28" fill="#fff"></rect><path data-v-2a183b29="" d="M847,327.78v85.28H748V327.78h99m1-1H747v87.28H848V326.78Z" transform="translate(-117.18 -49.59)" fill="#e2e2ec"></path><rect data-v-2a183b29="" x="529.37" y="277.68" width="99.99" height="86.28" fill="#fff"></rect><path data-v-2a183b29="" d="M746,327.78v85.28h-99V327.78h99m1-1h-101v87.28H747V326.78Z" transform="translate(-117.18 -49.59)" fill="#e2e2ec"></path><rect data-v-2a183b29="" x="428.38" y="277.68" width="99.99" height="86.28" fill="#fff"></rect><path data-v-2a183b29="" d="M645.05,327.78v85.28h-99V327.78h99m1-1h-101v87.28h101V326.78Z" transform="translate(-117.18 -49.59)" fill="#e2e2ec"></path><rect data-v-2a183b29="" x="327.39" y="277.68" width="99.99" height="86.28" fill="#fff"></rect><path data-v-2a183b29="" d="M544.06,327.78v85.28h-99V327.78h99m1-1h-101v87.28h101V326.78Z" transform="translate(-117.18 -49.59)" fill="#e2e2ec"></path><rect data-v-2a183b29="" x="226.4" y="277.68" width="99.99" height="86.28" fill="#fff"></rect><path data-v-2a183b29="" d="M443.07,327.78v85.28h-99V327.78h99m1-1h-101v87.28h101V326.78Z" transform="translate(-117.18 -49.59)" fill="#e2e2ec"></path><rect data-v-2a183b29="" x="630.36" y="364.96" width="99.99" height="86.28" fill="#fff"></rect><path data-v-2a183b29="" d="M847,415.05v85.28H748V415.05h99m1-1H747v87.28H848V414.05Z" transform="translate(-117.18 -49.59)" fill="#e2e2ec"></path><rect data-v-2a183b29="" x="529.37" y="364.96" width="99.99" height="86.28" fill="#fff"></rect><path data-v-2a183b29="" d="M746,415.05v85.28h-99V415.05h99m1-1h-101v87.28H747V414.05Z" transform="translate(-117.18 -49.59)" fill="#e2e2ec"></path><rect data-v-2a183b29="" x="428.38" y="364.96" width="99.99" height="86.28" fill="#fff"></rect><path data-v-2a183b29="" d="M645.05,415.05v85.28h-99V415.05h99m1-1h-101v87.28h101V414.05Z" transform="translate(-117.18 -49.59)" fill="#e2e2ec"></path><rect data-v-2a183b29="" x="327.39" y="364.96" width="99.99" height="86.28" fill="#fff"></rect><path data-v-2a183b29="" d="M544.06,415.05v85.28h-99V415.05h99m1-1h-101v87.28h101V414.05Z" transform="translate(-117.18 -49.59)" fill="#e2e2ec"></path><rect data-v-2a183b29="" x="226.4" y="364.96" width="99.99" height="86.28" fill="#fff"></rect><path data-v-2a183b29="" d="M443.07,415.05v85.28h-99V415.05h99m1-1h-101v87.28h101V414.05Z" transform="translate(-117.18 -49.59)" fill="#e2e2ec"></path><rect data-v-2a183b29="" x="630.36" y="452.23" width="99.99" height="86.28" fill="#fff"></rect><path data-v-2a183b29="" d="M847,502.33V587.6H748V502.33h99m1-1H747V588.6H848V501.33Z" transform="translate(-117.18 -49.59)" fill="#e2e2ec"></path><rect data-v-2a183b29="" x="529.37" y="452.23" width="99.99" height="86.28" fill="#fff"></rect><path data-v-2a183b29="" d="M746,502.33V587.6h-99V502.33h99m1-1h-101V588.6H747V501.33Z" transform="translate(-117.18 -49.59)" fill="#e2e2ec"></path><rect data-v-2a183b29="" x="428.38" y="452.23" width="99.99" height="86.28" fill="#fff"></rect><path data-v-2a183b29="" d="M645.05,502.33V587.6h-99V502.33h99m1-1h-101V588.6h101V501.33Z" transform="translate(-117.18 -49.59)" fill="#e2e2ec"></path><rect data-v-2a183b29="" x="327.39" y="452.23" width="99.99" height="86.28" fill="#fff"></rect><path data-v-2a183b29="" d="M544.06,502.33V587.6h-99V502.33h99m1-1h-101V588.6h101V501.33Z" transform="translate(-117.18 -49.59)" fill="#e2e2ec"></path><rect data-v-2a183b29="" x="226.4" y="452.23" width="99.99" height="86.28" fill="#fff"></rect><path data-v-2a183b29="" d="M443.07,502.33V587.6h-99V502.33h99m1-1h-101V588.6h101V501.33Z" transform="translate(-117.18 -49.59)" fill="#e2e2ec"></path><rect data-v-2a183b29="" x="630.36" y="539.51" width="99.99" height="86.28" fill="#fff"></rect><path data-v-2a183b29="" d="M847,589.6v85.28H748V589.6h99m1-1H747v87.28H848V588.6Z" transform="translate(-117.18 -49.59)" fill="#e2e2ec"></path><rect data-v-2a183b29="" x="529.37" y="539.51" width="99.99" height="86.28" fill="#fff"></rect><path data-v-2a183b29="" d="M746,589.6v85.28h-99V589.6h99m1-1h-101v87.28H747V588.6Z" transform="translate(-117.18 -49.59)" fill="#e2e2ec"></path><rect data-v-2a183b29="" x="428.38" y="539.51" width="99.99" height="86.28" fill="#fff"></rect><path data-v-2a183b29="" d="M645.05,589.6v85.28h-99V589.6h99m1-1h-101v87.28h101V588.6Z" transform="translate(-117.18 -49.59)" fill="#e2e2ec"></path><rect data-v-2a183b29="" x="327.39" y="539.51" width="99.99" height="86.28" fill="#fff"></rect><path data-v-2a183b29="" d="M544.06,589.6v85.28h-99V589.6h99m1-1h-101v87.28h101V588.6Z" transform="translate(-117.18 -49.59)" fill="#e2e2ec"></path><rect data-v-2a183b29="" x="226.4" y="539.51" width="99.99" height="86.28" fill="#fff"></rect><path data-v-2a183b29="" d="M443.07,589.6v85.28h-99V589.6h99m1-1h-101v87.28h101V588.6Z" transform="translate(-117.18 -49.59)" fill="#e2e2ec"></path><path data-v-2a183b29="" d="M553.6,754.48c2.86-2.17,5.55-4.73,6.38-7.85a6.64,6.64,0,0,0-4.46-8c-4.09-1.28-8.46,1-11.78,3.37s-7.11,5-11.45,4.51c4.49-3.25,6.63-8.52,5.39-13.31a5.16,5.16,0,0,0-1.5-2.7c-2.27-2-6.39-1.13-9.11.43-8.65,5-11.06,14.55-11.11,23.18-.87-3.11-.14-6.35-.16-9.55s-1.09-6.73-4.39-8.45a15.71,15.71,0,0,0-6.7-1.29c-3.89-.12-8.22.2-10.87,2.52-3.3,2.88-2.44,7.72.43,10.89s7.24,5.16,11.25,7.35c3.06,1.67,6.16,3.62,8,6.26a5.68,5.68,0,0,1,.6,1.12h24.37A70.07,70.07,0,0,0,553.6,754.48Z" transform="translate(-117.18 -49.59)" fill="#6c63ff"></path><circle data-v-2a183b29="" cx="239.59" cy="203.53" r="5.7" fill="#fc6681"></circle><circle data-v-2a183b29="" cx="253.83" cy="203.53" r="5.7" fill="#ffd037"></circle><circle data-v-2a183b29="" cx="440.87" cy="288.03" r="5.7" fill="#6c63ff"></circle><circle data-v-2a183b29="" cx="455.12" cy="288.03" r="5.7" fill="#6c63ff"></circle><circle data-v-2a183b29="" cx="745.64" cy="451.33" r="5.7" fill="#6c63ff"></circle><circle data-v-2a183b29="" cx="748.49" cy="444.69" r="5.7" fill="#6c63ff"></circle><circle data-v-2a183b29="" cx="751.34" cy="438.99" r="5.7" fill="#6c63ff"></circle><circle data-v-2a183b29="" cx="645" cy="203.53" r="5.7" fill="#6c63ff"></circle><circle data-v-2a183b29="" cx="659.24" cy="203.53" r="5.7" fill="#6c63ff"></circle><circle data-v-2a183b29="" cx="673.49" cy="203.53" r="5.7" fill="#6c63ff"></circle><circle data-v-2a183b29="" cx="687.73" cy="203.53" r="5.7" fill="#6c63ff"></circle><circle data-v-2a183b29="" cx="645" cy="380.12" r="5.7" fill="#6c63ff"></circle><circle data-v-2a183b29="" cx="659.24" cy="380.12" r="5.7" fill="#6c63ff"></circle><circle data-v-2a183b29="" cx="673.49" cy="380.12" r="5.7" fill="#6c63ff"></circle><circle data-v-2a183b29="" cx="687.73" cy="380.12" r="5.7" fill="#6c63ff"></circle><circle data-v-2a183b29="" cx="340.23" cy="288.03" r="5.7" fill="#ffd037"></circle><circle data-v-2a183b29="" cx="239.59" cy="374.43" r="5.7" fill="#fc6681"></circle></svg>