<svg viewBox="0 0 32 32" xmlns="http://www.w3.org/2000/svg"><g fill="none" fill-rule="evenodd"><path d="M1.89 21.03a6.375 6.375 0 0 0-1.697 6.085.836.836 0 0 0 .589.581c.277.068.589 0 .796-.205l2.355-2.325c.208-.205.519-.342.831-.342.312 0 .589.103.831.342l1.074 1.06c.208.205.346.513.346.82 0 .308-.104.581-.346.82l-2.493 2.461c-.208.205-.277.479-.208.786.069.273.277.513.554.581a6.663 6.663 0 0 0 2.01.308c1.697 0 3.325-.65 4.571-1.88a6.248 6.248 0 0 0 1.835-5.23 2.536 2.536 0 0 1 .693-2.085l8.381-8.273c.519-.513 1.281-.786 2.078-.752a6.484 6.484 0 0 0 5.02-1.846 6.375 6.375 0 0 0 1.697-6.085.836.836 0 0 0-.589-.581.852.852 0 0 0-.796.205L27.067 7.8a1.161 1.161 0 0 1-1.628 0l-1.074-1.06a1.125 1.125 0 0 1 0-1.607l2.493-2.461c.208-.205.277-.479.208-.786-.069-.273-.277-.513-.554-.581-2.32-.718-4.848-.137-6.545 1.573a6.248 6.248 0 0 0-1.835 5.23 2.578 2.578 0 0 1-.762 2.188l-8.242 8.136c-.554.547-1.316.82-2.112.786-1.974-.171-3.809.513-5.125 1.812" fill="#c9baff"/><g fill="#aeafdc"><path d="M1.89 21.03a6.375 6.375 0 0 0-1.697 6.085.836.836 0 0 0 .589.581c.277.068.589 0 .796-.205l2.355-2.325c.208-.205.519-.342.831-.342.312 0 .589.103.831.342l1.074 1.06c.208.205.346.513.346.82 0 .308-.104.581-.346.82l-2.493 2.461c-.208.205-.277.479-.208.786.069.273.277.513.554.581a6.663 6.663 0 0 0 2.01.308c1.697 0 3.325-.65 4.571-1.88a6.248 6.248 0 0 0 1.835-5.23 2.536 2.536 0 0 1 .693-2.085l-4.502-4.376c-.554.547-1.316.82-2.112.786-1.974-.171-3.809.513-5.125 1.812M29.18 11.91a6.375 6.375 0 0 0 1.697-6.085.836.836 0 0 0-.589-.581.852.852 0 0 0-.796.205l-2.355 2.325a1.217 1.217 0 0 1-.831.342c-.312 0-.589-.103-.831-.342l-1.074-1.06a1.185 1.185 0 0 1-.346-.82c0-.308.104-.581.346-.82l2.493-2.461c.208-.205.277-.479.208-.786-.069-.273-.277-.513-.554-.581a6.663 6.663 0 0 0-2.01-.308c-1.697 0-3.325.65-4.571 1.88a6.248 6.248 0 0 0-1.835 5.23 2.536 2.536 0 0 1-.693 2.085l4.502 4.376c.554-.547 1.316-.82 2.112-.786 1.974.171 3.809-.513 5.125-1.812"/></g></g></svg>