<svg viewBox="0 0 36 29" xmlns="http://www.w3.org/2000/svg"><g fill="none" fill-rule="evenodd"><rect fill="#edfcf7" width="12" height="26" rx="2"/><path d="M3.5 6h5" stroke="#00d090" stroke-width="2" stroke-linecap="round" stroke-linejoin="round"/><rect fill="#edfcf7" x="16" width="12" height="26" rx="2"/><g stroke="#00d090"><g stroke-linejoin="round" stroke-linecap="round" stroke-width="2"><path d="M19.5 6h5M22 8.5v-5"/></g><path d="M30.21 23.273h-4.786l-.325.813c-.483 1.179-.725 1.948-.725 2.307 0 .384.129.676.386.875.257.199.587.298.99.298v.435h-3.745v-.435c.558-.088.973-.288 1.245-.6.273-.312.601-.969.985-1.971.031-.095.18-.46.446-1.097l3.661-8.897h.362l4.209 10.183.576 1.343c.13.303.305.54.525.714.22.173.55.282.99.326v.435h-4.953v-.435c.607 0 1.018-.046 1.231-.137.214-.091.321-.273.321-.544 0-.139-.142-.552-.427-1.239l-.966-2.373m-.158-.425l-2.23-5.465-2.221 5.465h4.451" stroke-width=".5" fill="#00d090"/></g></g></svg>