<svg viewBox="0 0 46 44" xmlns="http://www.w3.org/2000/svg"><g fill="none" fill-rule="evenodd"><path d="M24 5.5c0-.828.665-1.5 1.503-1.5h16.993c.83 0 1.503.666 1.503 1.5V7h-20V5.5" fill="#aeafdc"/><g fill="#dfdff1"><path d="M28 1.01C28 .453 28.456 0 29 0h9.995c.554 0 1 .443 1 1.01v2.991h-12V1.01M22 9a2 2 0 0 1 2-2h19.99c1.107 0 2 .896 2 2v34.998h-24V9"/></g><g stroke="#5e60ba" stroke-linecap="round" stroke-width="2.31"><path d="M27.333 18.11v1.556M32 18.11v1.556M36.667 18.11v1.556M27.333 24.333v1.556M32 24.333v1.556M36.667 24.333v1.556M27.333 30.556v1.556M32 30.556v1.556M36.667 30.556v1.556M41.07 18.11v1.556M27.333 12.11v1.556M32 12.11v1.556M36.667 12.11v1.556M41.07 12.11v1.556M41.1 24.333v1.556M41.08 30.555v1.556"/></g><g fill="#dfdff1"><path d="M3 44V32h14v12zM14 26h3v4h-3z"/></g><g fill="#aeafdc"><path d="M10 25l10 7H0zM7 39.77c0-.425.34-.77.772-.77h4.456a.77.77 0 0 1 .772.77V44H7v-4.23"/></g><g stroke="#5e60ba" stroke-linecap="round" stroke-width="2.31"><path d="M8 34.556v1.556M12 34.556v1.556"/></g><path d="M31 36.767c0-.424.34-.767.772-.767h4.456a.77.77 0 0 1 .772.767V44h-6v-7.233" fill="#aeafdc"/></g></svg>