<svg viewBox="0 0 36 36" xmlns="http://www.w3.org/2000/svg"><g fill="none" fill-rule="evenodd"><rect fill="#ffe1e1" width="36" height="36" rx="18"/><path d="M26.893 20.673l-2.026.677.702 2.094a1.617 1.617 0 0 1-1.578 2.132 1.62 1.62 0 0 1-1.495-1.104l-.703-2.093-4.178 1.397.702 2.093a1.618 1.618 0 0 1-1.578 2.132 1.62 1.62 0 0 1-1.495-1.103l-.703-2.094-2.026.678a1.621 1.621 0 0 1-2.052-1.021 1.617 1.617 0 0 1 1.022-2.048l2.027-.678-1.348-4.01-2.026.678a1.621 1.621 0 0 1-2.052-1.021 1.618 1.618 0 0 1 1.022-2.048l2.027-.678-.703-2.093a1.622 1.622 0 0 1 3.074-1.028l.702 2.093 4.179-1.397-.703-2.093a1.619 1.619 0 0 1 1.022-2.049 1.622 1.622 0 0 1 2.052 1.02l.702 2.094 2.027-.678a1.618 1.618 0 1 1 1.029 3.069l-2.026.677 1.347 4.02 2.027-.678a1.618 1.618 0 1 1 1.029 3.069M15.237 16.7l1.347 4.01 4.179-1.397-1.347-4.01-4.179 1.397" fill="#fe6a68"/></g></svg>