<svg viewBox="0 0 57 61" xmlns="http://www.w3.org/2000/svg" xmlns:xlink="http://www.w3.org/1999/xlink"><defs><rect id="a" width="18" rx="2" height="56"/><path id="b" d="M0 12h18v12H0z"/></defs><g fill="none" fill-rule="evenodd"><g transform="rotate(37 15.428 66.754)"><use fill="#e5faf3" xlink:href="#a"/><circle fill="#7fe7c7" cx="9" cy="49" r="2"/><path d="M0 2.01C0 .901.893 0 1.995 0h14.01C17.107 0 18 .902 18 2.01v9.991H0V2.01" fill="#00d090"/><use fill="#7fe7c7" xlink:href="#b"/><path fill="#ccf6e9" d="M0 24h18v12H0z"/></g><g transform="rotate(12.001 10.588 96.058)"><use fill="#e8f4fd" xlink:href="#a"/><circle fill="#90caf9" cx="9" cy="49" r="2"/><path d="M0 2.01C0 .901.893 0 1.995 0h14.01C17.107 0 18 .902 18 2.01v9.991H0V2.01" fill="#2196f3"/><use fill="#90caf9" xlink:href="#b"/><path fill="#d3eafd" d="M0 24h18v12H0z"/></g><g transform="rotate(-13 26.513 1.537)"><use fill="#f4efff" xlink:href="#a"/><circle fill="#cbb1ff" cx="9" cy="49" r="2"/><path d="M0 2.01C0 .901.893 0 1.995 0h14.01C17.107 0 18 .902 18 2.01v9.991H0V2.01" fill="#9763ff"/><use fill="#cbb1ff" xlink:href="#b"/><path fill="#eae0ff" d="M0 24h18v12H0z"/></g></g></svg>