<svg viewBox="0 0 40 30" xmlns="http://www.w3.org/2000/svg"><g fill="none" fill-rule="evenodd"><path d="M9.595 25.06c1.439.443 2.921.669 4.418.669 7.726 0 14.01-5.771 14.01-12.867 0-7.092-6.284-12.864-14.01-12.864C6.285-.002.003 5.771.003 12.862c0 3.727 1.749 7.249 4.812 9.699l-2.657 7.436 7.44-4.937" fill="#90caf9"/><path d="M37.62 30l-5.53-3.829a11.809 11.809 0 0 1-3.458.518c-6.05 0-10.965-4.476-10.965-9.978 0-5.5 4.918-9.976 10.965-9.976 6.05 0 10.967 4.477 10.967 9.976 0 2.89-1.369 5.622-3.766 7.522L37.62 30" fill="#d3eafd"/></g></svg>