<svg xmlns="http://www.w3.org/2000/svg" viewBox="0 0 32 25"><g fill="#2196f3"><path d="M8.3 12.5c-.3 0-.9.1-1.8.2-.5 0-.9-.2-1.2-.5-.2-.2-.4-.6-.4-1.2 0-1.7.9-3.5 2.8-5.4 1.1-1.1 2.7-2.5 5-4.1L11.9 0C7.5 2.3 4.4 4.9 2.6 7.7S0 13.1 0 15.6s.7 4.5 2 6.1 3 2.4 5.2 2.4c2 0 3.5-.6 4.5-1.8s1.6-2.5 1.6-4.1c0-1.7-.5-3.1-1.4-4.2s-2.1-1.5-3.6-1.5M30.3 14.2c-.9-1.1-2.1-1.6-3.5-1.6-.3 0-.9.1-1.8.2-.5 0-.9-.2-1.2-.5-.3-.3-.4-.7-.4-1.2 0-1.7.9-3.5 2.8-5.4 1.1-1.1 2.7-2.5 5-4.1L30.4 0c-4.4 2.3-7.5 4.9-9.3 7.7s-2.6 5.5-2.6 7.9.7 4.5 2 6.1 3 2.4 5.2 2.4c2 0 3.5-.6 4.5-1.8s1.6-2.5 1.6-4.1c-.1-1.6-.5-3-1.5-4"/></g></svg>