<svg viewBox="0 0 34 44" xmlns="http://www.w3.org/2000/svg"><g fill="none" fill-rule="evenodd"><path fill="#eeeff8" fill-rule="nonzero" d="M5.174 12.279h22.953v20.443H5.174z"/><g stroke-linecap="square" stroke="#aeafdc" stroke-width="1.05"><path d="M17 33.427v9.164M8.304 33.074l-4.87 9.869M25 33.074l4.87 9.869"/></g><g transform="translate(7.957 17.213)" fill-rule="nonzero" fill="#aeafdc"><ellipse cx="4.174" cy="4.23" rx="4.174" ry="4.23"/><path d="M14.4 0h5.565v8.459H14.4z"/></g><g transform="translate(6.565 29.2)" fill-rule="nonzero" fill="#dfdff1"><ellipse cx="7.652" cy=".705" rx="1" ry="1"/><ellipse cx=".696" cy=".705" rx="1" ry="1"/><ellipse cx="3.478" cy=".705" rx="1" ry="1"/><ellipse cx="10.435" cy=".705" rx="1" ry="1"/><ellipse cx="13.217" cy=".705" rx="1" ry="1"/><ellipse cx="16" cy=".705" rx="1" ry="1"/><ellipse cx="18.783" cy=".705" rx="1" ry="1"/></g><g stroke-linecap="round" stroke-linejoin="round"><path fill="#dfdff1" fill-rule="nonzero" d="M8.443 6.639h16.418l3.269 5.64H5.174z"/><g stroke="#aeafdc" stroke-width="1.05"><path d="M16.722 1.07v5.428M14.217 43.3h5.565M1 43.3h5.565M27.435 43.3H33"/></g></g></g></svg>