<svg viewBox="0 0 32 55" xmlns="http://www.w3.org/2000/svg"><g fill="none" fill-rule="evenodd"><g fill-rule="nonzero" fill="#dce0f6"><path d="M4 40.652h2.4v12.754L4 52.692zM13.6 43.84h4.8V55h-4.8zM25.6 40.652H28v12.04l-2.4.714z"/></g><path d="M10.24 10.203c0-3.109 3.76-8.768 3.76-8.768 1.28-1.275 2.56-1.275 3.68 0 0 0 3.76 5.659 3.76 8.768v28.855c0 .877-.72 1.594-1.6 1.594h-8c-.88 0-1.6-.717-1.6-1.594V10.203" fill="#eeeff8" fill-rule="nonzero"/><path d="M13.84 9.406s.96-.558 2-.558 2 .558 2 .558" stroke="#aeafdc" stroke-width="1.2" stroke-linecap="round" stroke-linejoin="round"/><g fill-rule="nonzero"><g fill="#5e60ba"><path d="M12.48 41.448c.08-.399.56-.797.96-.797h5.12c.4 0 .88.319.96.797l.48 1.594c.08.399-.16.797-.56.797h-6.72c-.48 0-.72-.319-.56-.797l.32-1.594M2.655 39.057c.08-.399.56-.797.96-.797h3.12c.4 0 .88.319.96.797l.24.877c.08.399-.16.797-.64.797h-4.24c-.48 0-.72-.319-.64-.797l.24-.877M24.255 39.057c.08-.399.56-.797.96-.797h3.12c.4 0 .88.319.96.797l.24.877c.08.399-.16.797-.64.797h-4.24c-.48 0-.72-.319-.64-.797l.24-.877"/></g><g stroke-linecap="round" stroke-linejoin="round" fill="#aeafdc"><path d="M10.24 14.189v23.913h-10s-.8-5.739 3.2-7.971C6 28.696 7.12 27.66 8.24 24.95c1.44-3.507 2-10.761 2-10.761M21.44 14.348v23.913h10s.8-5.739-3.2-7.971c-2.56-1.435-3.68-2.471-4.8-5.181-1.52-3.507-2-10.761-2-10.761"/></g></g></g></svg>