<svg viewBox="0 0 48 49" xmlns="http://www.w3.org/2000/svg"><g fill="none" fill-rule="evenodd" transform="translate(0 2)"><rect fill="#dde9f8" x="1" y="3" width="46" height="43.02" rx="3.494"/><g opacity=".5" transform="translate(10 18)" fill="#2196f3"><rect width="5" height="5" rx="1"/><rect x="8" width="5" height="5" rx="1"/><rect x="16" width="5" height="5" rx="1"/><rect x="24" width="5" height="5" rx="1"/><rect y="8" width="5" height="5" rx="1"/><rect x="8" y="8" width="5" height="5" rx="1"/><rect x="16" y="8" width="5" height="5" rx="1"/><rect x="24" y="8" width="5" height="5" rx="1"/><rect y="16" width="5" height="5" rx="1"/><rect x="8" y="16" width="5" height="5" rx="1"/><rect x="16" y="16" width="5" height="5" rx="1"/><rect x="24" y="16" width="5" height="5" rx="1"/></g><path d="M1 6.49A3.488 3.488 0 0 1 4.495 3h39.01A3.499 3.499 0 0 1 47 6.49v6.03H1V6.49" fill="#aedbff"/><g stroke-linejoin="round"><path d="M.443 11.875h47.37" stroke="#fff" stroke-width="1.5"/><g stroke="#2196f3" stroke-linecap="round" stroke-width="3"><path d="M36.5 7V0M11.5 7V0"/></g></g></g></svg>