<svg viewBox="0 0 41 45" xmlns="http://www.w3.org/2000/svg" xmlns:xlink="http://www.w3.org/1999/xlink"><defs><path d="M41 24.5C41 35.822 31.822 45 20.5 45S0 35.822 0 24.5 9.178 4 20.5 4 41 13.178 41 24.5" id="a"/><mask id="b" fill="#fff"><use xlink:href="#a"/></mask></defs><g fill="none" fill-rule="evenodd"><use fill="#feecce" xlink:href="#a"/><g fill-rule="nonzero"><path d="M28.313 28.75H26.4l1.575-1.575c.675-.675.675-1.688 0-2.363l-.788-.788c-.675-.675-1.688-.675-2.363 0l-1.575 1.575v-1.913c0-.9-.788-1.688-1.688-1.688h-1.125c-.9 0-1.688.788-1.688 1.688v1.913l-1.575-1.688a1.766 1.766 0 0 0-2.475 0l-.787.787a1.766 1.766 0 0 0 0 2.475l1.688 1.575h-1.912c-.9 0-1.688.788-1.688 1.688v1.125c0 .9.787 1.688 1.688 1.688h2.025l-1.463 1.462c-.675.675-.675 1.688 0 2.363l.787.787c.675.675 1.688.675 2.362 0l1.35-1.237v1.688c0 .9.788 1.688 1.688 1.688h1.125c.9 0 1.688-.788 1.688-1.688v-1.913l1.462 1.462c.675.675 1.688.675 2.363 0l.788-.787c.675-.675.675-1.688 0-2.363l-1.463-1.462h1.913c.9 0 1.688-.788 1.688-1.688v-1.125c0-.9-.788-1.688-1.688-1.688m-7.313 5.288a3.025 3.025 0 0 1-3.038-3.038c0-1.688 1.463-2.925 3.038-2.925a3.025 3.025 0 0 1 3.038 3.038c0 1.687-1.35 2.925-3.038 2.925" fill="#f8a208" mask="url(#b)"/><path d="M16.13 9.5h-2.125l1.75-1.75c.75-.75.75-1.875 0-2.625l-.875-.875c-.75-.75-1.875-.75-2.625 0L10.505 6V3.875c0-1-.875-1.875-1.875-1.875H7.38c-1 0-1.875.875-1.875 1.875V6l-1.75-1.875c-.75-.75-2-.75-2.75 0L.13 5c-.75.75-.75 2 0 2.75L2.005 9.5H-.12c-1 0-1.875.875-1.875 1.875v1.25c0 1 .875 1.875 1.875 1.875h2.25L.505 16.125c-.75.75-.75 1.875 0 2.625l.875.875c.75.75 1.875.75 2.625 0l1.5-1.375v1.875c0 1 .875 1.875 1.875 1.875h1.25c1 0 1.875-.875 1.875-1.875V18l1.625 1.625c.75.75 1.875.75 2.625 0l.875-.875c.75-.75.75-1.875 0-2.625L14.005 14.5h2.125c1 0 1.875-.875 1.875-1.875v-1.25c0-1-.875-1.875-1.875-1.875m-8.125 5.875A3.361 3.361 0 0 1 4.63 12c0-1.875 1.625-3.25 3.375-3.25 1.875 0 3.375 1.5 3.375 3.375s-1.5 3.25-3.375 3.25" fill="#fbd083" mask="url(#b)"/></g><path fill="#f8a208" d="M41 9.625h-5.2L39.7 0 28 12.375h5.2L29.3 22z"/></g></svg>