<svg viewBox="0 0 32 47" xmlns="http://www.w3.org/2000/svg"><g fill="none" fill-rule="evenodd"><g fill="#aeafdc"><path d="M6 8.5C6 7.672 6.665 7 7.503 7h16.993c.83 0 1.503.666 1.503 1.5V10h-20V8.5M3 23h26a3 3 0 0 1 3 3v21H0V26a3 3 0 0 1 3-3"/></g><path d="M16 1.111v1.556" stroke="#5e60ba" stroke-width="2.31" stroke-linecap="round"/><g fill="#dfdff1"><path d="M10 4.01c0-.557.456-1.01 1-1.01h9.995c.554 0 1 .443 1 1.01v2.991h-12V4.01M4 12a2 2 0 0 1 2-2h19.99c1.107 0 2 .896 2 2v34.998h-24V12"/></g><g stroke="#5e60ba" stroke-linecap="round" stroke-width="2.31"><path d="M9.333 21.11v1.556M14 21.11v1.556M18.667 21.11v1.556M9.333 27.333v1.556M14 27.333v1.556M18.667 27.333v1.556M9.333 33.556v1.556M14 33.556v1.556M18.667 33.556v1.556M23.07 21.11v1.556M9.333 15.11v1.556M14 15.11v1.556M18.667 15.11v1.556M23.07 15.11v1.556M23.1 27.333v1.556M23.08 33.555v1.556"/></g><path d="M13 39.767c0-.424.34-.767.772-.767h4.456a.77.77 0 0 1 .772.767V47h-6v-7.233" fill="#aeafdc"/></g></svg>