<svg viewBox="0 0 67 40" xmlns="http://www.w3.org/2000/svg"><defs><linearGradient x1="50%" y1="0%" x2="73.762%" y2="108.882%" id="a"><stop stop-color="#90ffdd" stop-opacity=".17" offset="0%"/><stop stop-color="#00d090" stop-opacity=".768" offset="100%"/></linearGradient></defs><g fill="none" fill-rule="evenodd"><path d="M0 17.213c13.252 0 6.359-8.138 14.721-8.138s9.08 17.13 21.18 17.17c12.09.045 17.38-26.355 29.1-26.25v39H.207L.001 17.208" fill="url(#a)" transform="translate(1.2 1)"/><g stroke="#00d090"><g stroke-linecap="square"><path d="M2.486 29.5h63.24M2.486 34.5h63.24M45.114 24.5h20.617M2.481 24.5h27.02M48.5 19.5h17.231M2.5 19.5h22M51.971 14.5h13.76M10.5 14.5h11M54.984 9.5h10.747" opacity=".2"/></g><path d="M1.2 18.05c11.78 0 7.359-8.421 14.982-8.421 7.623 0 7.165 17.28 20.915 17.37 13.749.089 17.38-26.11 29.1-26" stroke-width="1.62" stroke-linecap="round" stroke-linejoin="round"/></g></g></svg>