<svg xmlns="http://www.w3.org/2000/svg" viewBox="0 0 33 30"><path fill="#2196f3" d="M0 21.8h8v8H0z"/><g fill="#90caf9"><path d="M11.5 10.2v2.9l-1.1-.6-3.7 6.4-.4-.2 3.8-6.4-1.2-.7z"/><path d="M6.8 19.4l-1-.6 3.7-6.4-1.4-.8 3.7-2.1v4.3l-1.3-.8-3.7 6.4"/></g><g fill="#90caf9"><path d="M25.5 18.8v-2.9l-1.1.6-3.7-6.4-.4.2 3.8 6.4-1.2.7z"/><path d="M25.9 19.5l-3.7-2.1 1.4-.8-3.7-6.4 1-.6 3.7 6.4 1.4-.8-.1 4.3M11 25.5l2.6 1.5v-1.3H21v-.4h-7.4V24z"/><path d="M13.9 27.7l-3.7-2.2 3.7-2.2v1.6h7.4V26h-7.4v1.7"/></g><path d="M16.5 0C19 0 21 2 21 4.5S19 9 16.5 9 12 7 12 4.5 14 0 16.5 0" fill="#d3eafd"/><path fill="#90caf9" d="M28 21l5 9H23z"/></svg>