<svg xmlns="http://www.w3.org/2000/svg" viewBox="0 0 22 22"><g fill="#63b5f6"><path d="M20.6 0l-2.4 1.4-.5 1.4L12 8.5l1.4 1.4 5.7-5.7 1.4-.5L22 1.4 20.6 0M9.9 9l2.8 3.2-1.2 1.2-3.3-2.6L9.9 9"/></g><g fill="#2196f3"><path d="M6 20.9l5.7-5.7c.6-.6.6-1.5 0-2.1l-2.8-2.8c-.6-.6-1.5-.6-2.1 0L1.1 16H1c-1.4 1.4-1.4 3.6 0 4.9 1.4 1.4 3.6 1.4 5 0M14.3 10.4l-2.7-2.7c-.5-.5-1.4-.5-2 0-.6.5-.6 1.4 0 2l2.7 2.7c.5.5 1.4.5 2 0 .5-.6.5-1.5 0-2"/></g><path d="M7.5 12.3l-.6.7-.1.1-.7.7-3.6 3.6c-.3.3-.3.8 0 1.1.3.3.8.3 1.1 0l3.9-3.9.5-.7-.3.3.9-.9c.3-.3.3-.8 0-1.1-.3-.2-.8-.2-1.1.1" fill="#dde9f8"/></svg>