<svg viewBox="0 0 22 22" xmlns="http://www.w3.org/2000/svg"><g fill="none" fill-rule="evenodd"><rect fill="#7fe7c7" opacity=".5" width="22" height="22" rx="1.8"/><g fill="#00d090"><path d="M7.492 8.72H4.744v.852h1.62V17h1.128V8.72m9.424 4.152c0 2.148-.936 4.26-3.168 4.26s-3.168-2.112-3.168-4.26c0-2.16.948-4.272 3.168-4.272 2.232 0 3.168 2.112 3.168 4.272m-1.176-.024c0-1.896-.66-3.264-1.992-3.264-1.332 0-1.992 1.368-1.992 3.264 0 1.884.66 3.264 1.992 3.264 1.332 0 1.992-1.38 1.992-3.264" stroke="#00d090" stroke-width=".25"/><path d="M0 1.805C0 .808.809 0 1.8 0h18.399a1.8 1.8 0 0 1 1.8 1.805V5h-22V1.805"/></g></g></svg>